

<svg width="32" height="32" viewBox="0 0 500 500" fill="none" xmlns="http://www.w3.org/2000/svg">
	<g clip-path="url(#clip0_201_6)">
	<path d="M197.436 451.999V54.908H331.61C362.762 54.908 388.226 60.5309 408.003 71.7766C427.909 82.8931 442.645 97.9521 452.211 116.953C461.776 135.955 466.559 157.154 466.559 180.55C466.559 203.946 461.776 225.21 452.211 244.341C442.775 263.471 428.168 278.724 408.391 290.099C388.614 301.345 363.279 306.968 332.385 306.968H236.215V264.311H330.834C352.162 264.311 369.289 260.627 382.216 253.26C395.142 245.892 404.513 235.939 410.33 223.4C416.276 210.733 419.249 196.449 419.249 180.55C419.249 164.651 416.276 150.432 410.33 137.894C404.513 125.355 395.077 115.532 382.022 108.422C368.966 101.184 351.645 97.5643 330.059 97.5643H245.522V451.999H197.436Z" fill="#DA6900"/>
	<path d="M47.3693 97.5643V54.908H345.188V97.5643H220.321V451.999H172.236V97.5643H47.3693Z" fill="#FFB904"/>
	</g>
	<defs>
	<clipPath id="clip0_201_6">
	<rect width="500" height="500" fill="white"/>
	</clipPath>
	</defs>
	</svg>